# xmcd
#
# Track frame offsets:
#	150
#	12585
#	27313
#	37591
#	46455
#	65610
#	77903
#	88871
#	105389
#	120532
#
# Disc length: 1764 seconds
#
# Revision: 1
# Processed by: cddbd v1.5.2PL0 Copyright (c) Steve Scherf et al.
# Submitted via: EZCDAudioConverter 3.1.7.1
#
DISCID=7806e20a
DTITLE=John Hammond - Sooner Or Later
DYEAR=2002
DGENRE=Blues
TTITLE0=Crosscut Saw
TTITLE1=How Many More Years
TTITLE2=Sooner Or Later
TTITLE3=Shake Your Money Maker
TTITLE4=Sugar Mama
TTITLE5=Nine Below Zero
TTITLE6=Dust My Broom
TTITLE7=Evil Is Going On
TTITLE8=That's Alright
TTITLE9=Don't Start Me Talking
EXTD=
EXTT0=
EXTT1=
EXTT2=
EXTT3=
EXTT4=
EXTT5=
EXTT6=
EXTT7=
EXTT8=
EXTT9=
PLAYORDER=
